<?xml version="1.0" standalone="no"?>
<!DOCTYPE svg PUBLIC "-//W3C//DTD SVG 20010904//EN"
 "http://www.w3.org/TR/2001/REC-SVG-20010904/DTD/svg10.dtd">
<svg version="1.0" xmlns="http://www.w3.org/2000/svg"
 width="913.000000pt" height="913.000000pt" viewBox="0 0 913.000000 913.000000"
 preserveAspectRatio="xMidYMid meet">
<metadata>
Created by potrace 1.11, written by Peter Selinger 2001-2013
</metadata>
<g transform="translate(0.000000,913.000000) scale(0.100000,-0.100000)"
fill="#000000" stroke="none">
<path d="M4477 9054 c-1 -1 -63 -5 -137 -8 -74 -4 -148 -9 -165 -11 -16 -3
-55 -7 -85 -10 -51 -6 -209 -30 -256 -39 -12 -2 -39 -7 -60 -10 -22 -4 -46 -8
-54 -11 -8 -2 -26 -6 -40 -9 -14 -2 -90 -20 -169 -40 -622 -157 -1239 -472
-1736 -885 -323 -268 -671 -655 -875 -971 -5 -8 -21 -32 -34 -52 -184 -277
-379 -685 -496 -1037 -59 -177 -135 -475 -155 -606 -3 -22 -8 -51 -10 -65 -14
-83 -25 -162 -30 -210 -3 -31 -8 -71 -10 -90 -24 -175 -25 -713 0 -885 2 -16
6 -55 9 -85 6 -66 25 -199 31 -220 2 -8 6 -33 10 -55 17 -123 78 -377 133
-555 33 -106 108 -316 122 -341 4 -9 24 -55 44 -103 55 -131 180 -376 264
-516 66 -110 195 -307 229 -350 6 -8 48 -61 91 -118 89 -114 99 -128 216 -256
256 -283 522 -511 853 -732 94 -63 174 -114 177 -114 4 0 23 -11 44 -24 117
-73 416 -218 605 -292 203 -80 578 -190 737 -218 14 -2 63 -11 110 -19 47 -9
105 -18 130 -21 25 -4 56 -8 70 -10 14 -3 57 -7 95 -11 39 -3 86 -8 105 -10
126 -14 413 -19 580 -10 133 7 254 16 280 20 14 3 50 7 80 10 30 3 82 11 115
16 33 6 71 13 85 14 87 12 321 66 456 105 359 103 717 258 1037 449 170 101
152 89 357 232 25 18 79 59 120 91 76 61 87 70 201 167 99 85 346 335 445 452
112 130 218 270 315 415 95 141 98 146 106 164 4 8 9 17 13 20 19 16 171 304
253 480 142 306 282 763 331 1084 4 21 9 48 11 60 5 22 11 68 21 151 3 28 7
61 10 75 13 78 19 237 19 485 0 323 -7 444 -41 660 -23 150 -23 154 -39 235
-9 41 -17 84 -19 95 -5 23 -57 226 -79 305 -9 30 -36 115 -61 188 -282 819
-812 1561 -1488 2084 -57 43 -110 84 -118 91 -40 32 -248 168 -365 237 -234
140 -564 292 -800 370 -55 18 -109 36 -120 40 -46 19 -245 72 -378 101 -164
35 -374 69 -535 85 -119 12 -546 26 -555 18z"/>
</g>
</svg>
